<?xml version="1.0" encoding="iso-8859-1"?>
<!-- Generator: Adobe Illustrator 30.3.0, SVG Export Plug-In . SVG Version: 9.03 Build 0)  -->
<svg version="1.1" id="Layer_1" xmlns="http://www.w3.org/2000/svg" xmlns:xlink="http://www.w3.org/1999/xlink" x="0px" y="0px"
	 viewBox="0 0 500 500" style="enable-background:new 0 0 500 500;" xml:space="preserve">
<path style="fill:#FFFFFF;" d="M167.55,114.46c28.32-20.9,62.42-33.83,97.44-37.17c45.38,0.39,90.77,0.16,136.15,0.18
	c-17.47,18.1-35.22,36.07-53.05,53.75c-26.98,0.64-53.98,0.03-80.96,0.37c-28.22,3.32-55.51,15.69-75.96,35.53
	c-17.41,16.66-29.75,38.94-33.07,62.93c-5.13,35.89,9.75,72.76,35.15,98c-0.72,0.99-1.52,1.92-2.41,2.76
	c-12.55,12.37-24.81,25.03-37.47,37.27c-24.28-24.08-42.48-54.61-50.27-88.03c-6.79-28.44-5.64-58.89,4.38-86.44
	C118.76,161.87,140.56,134.39,167.55,114.46z"/>
<path style="fill:#C1272D;" d="M266,204.5c44.61,0.1,89.23-0.2,133.82,0.15c-0.14,72.64-0.07,145.29-0.04,217.94
	c-11.07-10.03-21.21-21.04-32.1-31.28c-7.29-7.32-14.59-14.63-22-21.81c0.2-36.96-0.06-73.93,0.13-110.89
	c-26.61-0.29-53.22,0.04-79.83-0.17C266.03,240.46,265.98,222.48,266,204.5z"/>
<path style="fill:#C1272D;" d="M217.94,296.55c26.9-7,53.88-13.75,80.85-20.47c-7.06,26.81-13.88,53.68-20.9,80.51
	c-4.45-4.09-8.6-8.49-12.88-12.74c-14.54,13.85-28.59,28.24-42.91,42.34c-2.77-20.22-4.4-40.6-6.92-60.87l-0.02-0.15
	c5.23-5.28,10.7-10.34,15.65-15.88C226.39,305.18,222.23,300.79,217.94,296.55z"/>
<path style="fill:#2E3192;" d="M170.06,370.07c14.96-15,29.94-29.98,45.12-44.75c2.52,20.27,4.15,40.65,6.92,60.87
	c-11.93,12.35-24.43,24.13-36.46,36.38c-21.21-0.11-42.41-0.77-63.63-0.83c-1.1,0.02-2.17-0.16-3.21-0.51
	C135.59,403.88,153.07,387.21,170.06,370.07z"/>
<path style="fill:#2E3192;" d="M217.47,408.45c14.46-14.62,29.13-29.05,43.57-43.69c4.93,0.75,9.93,0.88,14.9,1.19
	c23.01,1.37,46.04,2.37,69.07,3.2l0.67,0.35c7.41,7.18,14.71,14.49,22,21.81c10.89,10.24,21.03,21.25,32.1,31.28l0.32,0.26
	c-42.69-0.23-85.39-0.04-128.08-0.09c-5.04,0.23-10-0.77-14.94-1.58c-13.75-2.39-27.22-6.31-40.19-11.46
	C217.04,409.4,217.32,408.77,217.47,408.45z"/>
</svg>
